<svg width="594" height="726" viewBox="0 0 594 726" fill="none" xmlns="http://www.w3.org/2000/svg">
<path d="M0.25 0.5L221.25 383.25L372.75 295.75L202.25 0.5H0.25Z" fill="#212529"/>
<path d="M372.75 295.75L282.625 139.5L236.125 220C204.962 227.201 175.332 239.9 148.625 257.5L221.125 382.5L372.75 295.75Z" fill="#111315"/>
<path d="M329.5 320.75L264.5 358.25L57.875 0.5H144.5L329.5 320.75Z" fill="#DD051D"/>
<path d="M391.75 0.5L221.25 295.75L372.75 383.25L593.75 0.5H391.75Z" fill="#212529"/>
<path d="M329.5 320.75L253.75 189.5L236 220.25C221.221 223.602 206.752 228.202 192.75 234L264.5 358.25L329.5 320.75Z" fill="#A60416"/>
<path d="M445.25 257.75C393.053 223.139 330.391 207.882 268.125 214.625L221.25 295.75L372.75 383.25L445.25 257.75Z" fill="#111315"/>
<path d="M536.125 0.5L329.5 358.25L264.5 320.75L449.5 0.5H536.125Z" fill="#DD051D"/>
<path d="M329.5 358.25L401.25 234C377.322 223.939 352.057 217.412 326.25 214.625L264.5 320.75L329.5 358.25Z" fill="#A60416"/>
<path d="M297 725.5C431.619 725.5 540.75 616.369 540.75 481.75C540.75 347.131 431.619 238 297 238C162.381 238 53.25 347.131 53.25 481.75C53.25 616.369 162.381 725.5 297 725.5Z" fill="url(#paint0_radial_17_105)"/>
<path d="M297 663C397.102 663 478.25 581.852 478.25 481.75C478.25 381.648 397.102 300.5 297 300.5C196.898 300.5 115.75 381.648 115.75 481.75C115.75 581.852 196.898 663 297 663Z" fill="#525252"/>
<path d="M320.5 382.625C308.045 379.223 294.957 378.844 282.326 381.518C269.694 384.192 257.883 389.843 247.875 398C239.127 405.587 232.127 414.98 227.358 425.533C222.589 436.085 220.164 447.545 220.25 459.125H272C272 431.125 314.125 429.375 322 446.625C334.5 472.875 222 534.125 222 534.125V584.125H372V534.125H322C339.466 526.009 353.802 512.41 362.827 495.397C371.853 478.383 375.074 458.887 372 439.875C369.196 426.652 362.961 414.399 353.921 404.35C344.88 394.3 333.354 386.808 320.5 382.625Z" fill="#D9D9D9"/>
<defs>
<radialGradient id="paint0_radial_17_105" cx="0" cy="0" r="1" gradientUnits="userSpaceOnUse" gradientTransform="translate(297 481.75) rotate(90) scale(243.75)">
<stop offset="0.885417" stop-color="#D9D9D9"/>
<stop offset="1" stop-color="#D9D9D9" stop-opacity="0"/>
</radialGradient>
</defs>
</svg>


