<svg width="594" height="726" viewBox="0 0 594 726" fill="none" xmlns="http://www.w3.org/2000/svg">
<path d="M0.25 0.5L221.25 383.25L372.75 295.75L202.25 0.5H0.25Z" fill="#212529"/>
<path d="M372.75 295.75L282.625 139.5L236.125 220C204.962 227.201 175.332 239.9 148.625 257.5L221.125 382.5L372.75 295.75Z" fill="#111315"/>
<path d="M329.5 320.75L264.5 358.25L57.875 0.5H144.5L329.5 320.75Z" fill="#DD051D"/>
<path d="M391.75 0.5L221.25 295.75L372.75 383.25L593.75 0.5H391.75Z" fill="#212529"/>
<path d="M329.5 320.75L253.75 189.5L236 220.25C221.221 223.602 206.752 228.202 192.75 234L264.5 358.25L329.5 320.75Z" fill="#A60416"/>
<path d="M445.25 257.75C393.053 223.139 330.391 207.882 268.125 214.625L221.25 295.75L372.75 383.25L445.25 257.75Z" fill="#111315"/>
<path d="M536.125 0.5L329.5 358.25L264.5 320.75L449.5 0.5H536.125Z" fill="#DD051D"/>
<path d="M329.5 358.25L401.25 234C377.322 223.939 352.057 217.412 326.25 214.625L264.5 320.75L329.5 358.25Z" fill="#A60416"/>
<path d="M297 725.5C431.619 725.5 540.75 616.369 540.75 481.75C540.75 347.131 431.619 238 297 238C162.381 238 53.25 347.131 53.25 481.75C53.25 616.369 162.381 725.5 297 725.5Z" fill="url(#paint0_radial_17_119)"/>
<path d="M297 663C397.102 663 478.25 581.852 478.25 481.75C478.25 381.648 397.102 300.5 297 300.5C196.898 300.5 115.75 381.648 115.75 481.75C115.75 581.852 196.898 663 297 663Z" fill="#F9A215"/>
<path d="M353.75 481.75C360.648 476.677 366.303 470.103 370.288 462.523C374.272 454.944 376.482 446.559 376.75 438C376.75 403.5 341 375.5 297 375.5C253 375.5 217.375 403.5 217.375 438H266.375C267.158 432.336 269.86 427.111 274.029 423.197C278.198 419.283 283.583 416.917 289.286 416.493C294.988 416.069 300.664 417.613 305.366 420.867C310.068 424.121 313.513 428.889 315.125 434.375C317.25 449.75 305.5 468.5 290.125 468.5V495C317.875 495 325.625 538.75 299.125 549C295.393 550.217 291.428 550.538 287.549 549.938C283.67 549.337 279.988 547.832 276.799 545.544C273.61 543.256 271.004 540.249 269.194 536.767C267.383 533.284 266.417 529.425 266.375 525.5H217.375C217.375 560 253 588 297 588C341 588 376.75 560 376.75 525.5C376.482 516.941 374.272 508.556 370.288 500.977C366.303 493.397 360.648 486.823 353.75 481.75Z" fill="#FCCD1D"/>
<defs>
<radialGradient id="paint0_radial_17_119" cx="0" cy="0" r="1" gradientUnits="userSpaceOnUse" gradientTransform="translate(297 482) rotate(90) scale(244)">
<stop offset="0.807292" stop-color="#F4C515"/>
<stop offset="1" stop-color="#FFCF1A" stop-opacity="0"/>
</radialGradient>
</defs>
</svg>
