<svg width="594" height="726" viewBox="0 0 594 726" fill="none" xmlns="http://www.w3.org/2000/svg">
<path d="M0.25 0.5L221.25 383.25L372.75 295.75L202.25 0.5H0.25Z" fill="#212529"/>
<path d="M372.75 295.75L282.625 139.5L236.125 220C204.962 227.201 175.332 239.9 148.625 257.5L221.125 382.5L372.75 295.75Z" fill="#111315"/>
<path d="M329.5 320.75L264.5 358.25L57.875 0.5H144.5L329.5 320.75Z" fill="#DD051D"/>
<path d="M391.75 0.5L221.25 295.75L372.75 383.25L593.75 0.5H391.75Z" fill="#212529"/>
<path d="M329.5 320.75L253.75 189.5L236 220.25C221.221 223.602 206.752 228.202 192.75 234L264.5 358.25L329.5 320.75Z" fill="#A60416"/>
<path d="M445.25 257.75C393.053 223.139 330.391 207.882 268.125 214.625L221.25 295.75L372.75 383.25L445.25 257.75Z" fill="#111315"/>
<path d="M536.125 0.5L329.5 358.25L264.5 320.75L449.5 0.5H536.125Z" fill="#DD051D"/>
<path d="M329.5 358.25L401.25 234C377.322 223.939 352.057 217.412 326.25 214.625L264.5 320.75L329.5 358.25Z" fill="#A60416"/>
<path d="M297 725.5C431.619 725.5 540.75 616.369 540.75 481.75C540.75 347.131 431.619 238 297 238C162.381 238 53.25 347.131 53.25 481.75C53.25 616.369 162.381 725.5 297 725.5Z" fill="url(#paint0_radial_17_91)"/>
<path d="M297 663C397.102 663 478.25 581.852 478.25 481.75C478.25 381.648 397.102 300.5 297 300.5C196.898 300.5 115.75 381.648 115.75 481.75C115.75 581.852 196.898 663 297 663Z" fill="#FCCD1D"/>
<path d="M323.625 508.375V375.5H270.5C270.5 386.076 266.299 396.218 258.821 403.696C251.343 411.174 241.201 415.375 230.625 415.375H217.375V468.5H270.5V508.375C270.467 515.415 267.647 522.155 262.658 527.121C257.668 532.087 250.915 534.875 243.875 534.875H217.375V588H376.75V534.875H350.125C343.097 534.875 336.356 532.083 331.387 527.113C326.417 522.144 323.625 515.403 323.625 508.375Z" fill="#FFFF34"/>
<defs>
<radialGradient id="paint0_radial_17_91" cx="0" cy="0" r="1" gradientUnits="userSpaceOnUse" gradientTransform="translate(297 481.75) rotate(90) scale(243.75)">
<stop offset="0.890625" stop-color="#FFFF34"/>
<stop offset="1" stop-color="#FCCD1D" stop-opacity="0"/>
</radialGradient>
</defs>
</svg>

